<svg style="object-fit:cover" id="my-svg" version="1" baseProfile="full" width="100%" height="100%" viewBox="0 0 1366 668" xmlns="http://www.w3.org/2000/svg"><rect width="1366" height="668" fill="#f4f4f4"/><defs><radialGradient id="radial-gradient" cx="0.5" cy="0.75" r="0"><stop offset="0%" stop-color="#51d68b90"/><stop offset="100%" stop-color="#1cba3690"/></radialGradient></defs><path transform="scale(1, 1)" d="M 0,668 V 0,368 C 102.58333333333334,365.32142857142856 205.16666666666669,362.64285714285717 331,334 C 456.8333333333333,305.35714285714283 605.9166666666665,250.74999999999997 714,241 C 822.0833333333335,231.25000000000003 889.1666666666667,266.3571428571429 991,295 C 1092.8333333333333,323.6428571428571 1229.4166666666665,345.82142857142856 1366,368 C 1366,368 1366,668 1366,668 Z" stroke="none" stroke-width="0" fill="url(#radial-gradient)" class="transition-all duration-300 ease-in-out delay-150" style="transform-origin: center center;"/><defs><radialGradient id="radial-gradient" cx="0.5" cy="0.75" r="0"><stop offset="0%" stop-color="#51d68bff"/><stop offset="100%" stop-color="#1cba36ff"/></radialGradient></defs><path transform="scale(1, 1)" d="M 0,668 V 0,552 C 111.65476190476193,495.6428571428571 223.30952380952385,439.2857142857143 322,440 C 420.69047619047615,440.7142857142857 506.41666666666663,498.5 634,504 C 761.5833333333334,509.5 931.0238095238096,462.7142857142857 1060,462 C 1188.9761904761904,461.2857142857143 1277.4880952380952,506.6428571428571 1366,552 C 1366,552 1366,668 1366,668 Z" stroke="none" stroke-width="0" fill="url(#radial-gradient)" class="transition-all duration-300 ease-in-out delay-150" style="transform-origin: center center;"/></svg>